<?xml version="1.0" standalone="no"?>
<svg xmlns="http://www.w3.org/2000/svg" viewBox="0 0 163.6733846153846 53" width="163.6733846153846" height="53"><rect fill="none" stroke="#ead017" stroke-width="3" width="160.6733846153846" height="50" x="1.5" y="1.5"></rect><g fill="#ffffff" color="#ffffff" transform="translate(12, 12) scale(0.5576924)"><svg width="41.0" height="52.0" x="0.0" y="0.0" viewBox="0 0 41 52"><g fill="none" fill-rule="evenodd"><path fill="currentColor" d="M33.708 50.177c.078.164.114.349.084.528a.874.874 0 0 1-.863.735H17.843a.637.637 0 0 1-.45-1.087l2.985-2.987c.264-.264.624-.412.997-.412h3.062a1.57 1.57 0 0 0 1.108-.458l3.223-3.223a.819.819 0 0 1 1.318.228l3.622 6.676zm-7.634-13.111l-2.318-13.818h.76c.428 0 .824-.288.9-.709a.872.872 0 0 0-.857-1.033h-.533a.385.385 0 0 1-.385-.385V17.67c0-.176.125-.33.298-.36.405-.068.739-.393.76-.811a.871.871 0 0 0-.87-.918h-.188v-.784a.871.871 0 0 0-.344-.693l-2.614-1.987a.872.872 0 0 0-1.054 0l-2.615 1.987a.871.871 0 0 0-.344.693v.785h-.14c-.409 0-.796.258-.893.656-.132.54.254 1.076.772 1.084.204.003.257.11.261.323v3.477a.384.384 0 0 1-.384.385h-.491c-.427 0-.823.289-.899.71a.872.872 0 0 0 .857 1.032h.803L14.23 37.114a.377.377 0 0 1-.502.292C6.343 34.646 1.187 27.276 1.79 18.813c.643-9.008 7.864-16.295 16.867-17.01C29.483.94 38.569 9.507 38.569 20.155c0 7.795-4.871 14.47-11.728 17.152-.058.024-.1.048-.176.068-.252.068-.485.02-.591-.31zm-3.86-9.822a.278.278 0 0 1 .47.15l.434 2.592a1.12 1.12 0 0 1-.312.977l-6.109 6.109a.377.377 0 0 1-.638-.33l.58-3.457a1.78 1.78 0 0 1 .497-.964l5.077-5.077zm-3.302-3.996h2.679a.47.47 0 0 1 .463.392l.111.66a.885.885 0 0 1-.248.775l-4.028 4.028a.298.298 0 0 1-.505-.26l.841-5.014a.696.696 0 0 1 .687-.58zm-.5-7.667v-.163c0-.119.056-.231.151-.302L20.03 14a.207.207 0 0 1 .251 0l1.467 1.115a.38.38 0 0 1 .15.302v.163h-3.485zm.49 1.743h2.508c.27 0 .488.218.488.489v3.204c0 .27-.218.489-.488.489h-2.508a.489.489 0 0 1-.49-.49v-3.203c0-.27.22-.49.49-.49zM15.28 41.382c.056-.336.216-.645.456-.886l7.206-7.206a.455.455 0 0 1 .77.247l.605 3.605a.624.624 0 0 1-.178.549l-.04.039-1.255 1.255a.07.07 0 0 1-.12-.05v-.885c0-.428-.288-.824-.709-.899a.872.872 0 0 0-1.033.857v2.666c0 .154-.116.334-.316.334h-3.483c-.42 0-.823.167-1.121.465l-.736.736c-.07.069-.187.008-.17-.088l.124-.739zM19.054.03C8.947.57.725 8.672.046 18.771-.57 27.94 4.988 35.92 12.964 38.977c.52.2.83.735.738 1.284l-.578 3.448a2.682 2.682 0 0 1-.748 1.452l-4.792 4.791a.877.877 0 0 0 .047 1.28.87.87 0 0 0 .586.208h5.011c.682 0 1.337-.271 1.82-.754l4.971-4.972c.322-.322.76-.502 1.215-.502h2.75c.533 0 1.045-.213 1.423-.59l3.333-3.333c.304-.304.385-.768.199-1.157l-.517-1.089a.464.464 0 0 1 .227-.619c6.88-3.21 11.664-10.188 11.664-18.268C40.312 8.676 30.666-.59 19.054.03z"></path></g></svg></g><line x1="45.366" y1="0" x2="45.366" y2="100%" stroke="#ead017" stroke-width="3"></line><path fill="#ffffff" fill-rule="nonzero" d="M15.58 2.35Q15.58 3.82 14.84 4.61Q14.11 5.40 12.65 5.78L12.65 5.78Q13.34 6.31 13.74 7.02Q14.14 7.73 14.14 8.52L14.14 8.52Q14.14 10.54 12.61 11.57Q11.09 12.60 8.81 12.60L8.81 12.60L6.98 12.60Q5.47 12.60 5.47 13.30L5.47 13.30Q5.47 13.63 5.81 13.84Q6.14 14.04 6.98 14.04L6.98 14.04L11.30 14.04Q13.42 14.04 14.50 15.14Q15.58 16.25 15.58 18.10L15.58 18.10Q15.58 19.46 14.86 20.45Q14.14 21.43 12.91 21.94Q11.69 22.44 10.25 22.44L10.25 22.44L3.19 22.44Q2.33 22.44 1.60 22.03Q0.86 21.62 0.43 20.92Q0 20.21 0 19.34L0 19.34Q0 18.41 0.58 17.65Q1.15 16.90 2.02 16.51L2.02 16.51Q1.44 16.10 1.10 15.53Q0.77 14.95 0.77 14.28L0.77 14.28Q0.77 13.34 1.46 12.59Q2.16 11.83 3.19 11.57L3.19 11.57Q2.26 10.97 1.70 10.19Q1.15 9.41 1.15 8.54L1.15 8.54Q1.15 6.34 2.94 5.39Q4.73 4.44 7.68 4.44L7.68 4.44Q8.98 4.44 9.77 4.58L9.77 4.58Q10.94 3.84 11.29 3.23Q11.64 2.62 11.64 2.35L11.64 2.35L15.58 2.35ZM7.63 6.94Q6.84 6.94 6.34 7.34Q5.83 7.75 5.83 8.52L5.83 8.52Q5.83 9.31 6.30 9.71Q6.77 10.10 7.63 10.10L7.63 10.10Q8.50 10.10 8.99 9.71Q9.48 9.31 9.48 8.52L9.48 8.52Q9.48 7.73 8.99 7.33Q8.50 6.94 7.63 6.94L7.63 6.94ZM5.78 17.40Q5.23 17.40 4.88 17.70Q4.54 18.00 4.54 18.55L4.54 18.55Q4.54 19.10 4.90 19.44Q5.26 19.78 5.78 19.78L5.78 19.78L9.53 19.78Q10.06 19.78 10.43 19.45Q10.80 19.13 10.80 18.58L10.80 18.58Q10.80 18.02 10.44 17.71Q10.08 17.40 9.53 17.40L9.53 17.40L5.78 17.40ZM23.88 4.44Q27.36 4.44 29.20 6.07Q31.03 7.70 31.03 11.06L31.03 11.06L31.03 11.88L21.53 11.88Q21.53 13.25 22.14 13.94Q22.75 14.64 24.07 14.64L24.07 14.64Q25.27 14.64 25.84 14.14Q26.40 13.63 26.40 12.79L26.40 12.79L31.03 12.79Q31.03 15.10 29.28 16.39Q27.53 17.69 24.17 17.69L24.17 17.69Q20.64 17.69 18.70 16.04Q16.75 14.40 16.75 11.06L16.75 11.06Q16.75 7.80 18.65 6.12Q20.54 4.44 23.88 4.44L23.88 4.44ZM24.07 7.49Q21.82 7.49 21.55 9.62L21.55 9.62L26.21 9.62Q26.21 8.64 25.64 8.06Q25.08 7.49 24.07 7.49L24.07 7.49ZM39.89 4.44Q43.22 4.44 45.13 6.13Q47.04 7.82 47.04 11.06L47.04 11.06Q47.04 14.30 45.13 16.00Q43.22 17.69 39.89 17.69L39.89 17.69Q36.55 17.69 34.66 16.01Q32.76 14.33 32.76 11.06L32.76 11.06Q32.76 7.80 34.66 6.12Q36.55 4.44 39.89 4.44L39.89 4.44ZM39.89 7.68Q37.54 7.68 37.54 10.39L37.54 10.39L37.54 11.76Q37.54 14.45 39.89 14.45L39.89 14.45Q42.26 14.45 42.26 11.76L42.26 11.76L42.26 10.39Q42.26 7.68 39.89 7.68L39.89 7.68ZM54.14 5.90Q55.51 4.44 57.70 4.44L57.70 4.44Q60.26 4.44 61.66 6.11Q63.05 7.78 63.05 11.04L63.05 11.04Q63.05 14.33 61.66 16.01Q60.26 17.69 57.70 17.69L57.70 17.69Q55.06 17.69 53.66 15.60L53.66 15.60L53.26 17.40L49.37 17.40L49.37 0L54.14 0L54.14 5.90ZM56.21 7.97Q55.15 7.97 54.62 8.72Q54.10 9.48 54.10 10.68L54.10 10.68L54.10 11.47Q54.10 12.67 54.62 13.42Q55.15 14.16 56.21 14.16L56.21 14.16Q58.27 14.16 58.27 11.71L58.27 11.71L58.27 10.44Q58.27 7.97 56.21 7.97L56.21 7.97ZM71.90 4.44Q75.24 4.44 77.15 6.13Q79.06 7.82 79.06 11.06L79.06 11.06Q79.06 14.30 77.15 16.00Q75.24 17.69 71.90 17.69L71.90 17.69Q68.57 17.69 66.67 16.01Q64.78 14.33 64.78 11.06L64.78 11.06Q64.78 7.80 66.67 6.12Q68.57 4.44 71.90 4.44L71.90 4.44ZM71.90 7.68Q69.55 7.68 69.55 10.39L69.55 10.39L69.55 11.76Q69.55 14.45 71.90 14.45L71.90 14.45Q74.28 14.45 74.28 11.76L74.28 11.76L74.28 10.39Q74.28 7.68 71.90 7.68L71.90 7.68ZM87.12 4.73L89.81 4.73L89.81 7.97L87.12 7.97L87.12 12.79Q87.12 13.66 87.41 14.05Q87.70 14.45 88.46 14.45L88.46 14.45L89.81 14.45L89.81 17.26Q89.23 17.45 88.32 17.57Q87.41 17.69 86.74 17.69L86.74 17.69Q84.62 17.69 83.48 16.92Q82.34 16.15 82.34 14.30L82.34 14.30L82.34 7.97L80.57 7.97L80.57 4.73L82.54 4.73L83.57 0.89L87.12 0.89L87.12 4.73Z" transform="translate(58.866 15.28)"></path></svg>